<?xml version="1.0" encoding="UTF-8"?>
<svg width="240px" height="168px" viewBox="0 0 240 168" version="1.1" xmlns="http://www.w3.org/2000/svg" xmlns:xlink="http://www.w3.org/1999/xlink">
    <!-- Generator: Sketch 53.1 (72631) - https://sketchapp.com -->
    <title>02 Spot Illustrations / Search Widgets</title>
    <desc>Created with Sketch.</desc>
    <defs>
        <linearGradient x1="29.3029781%" y1="35.0700399%" x2="69.9832629%" y2="64.5992672%" id="linearGradient-1">
            <stop stop-color="#BFD2E8" offset="11.17%"></stop>
            <stop stop-color="#C7D8EC" offset="46.59%"></stop>
            <stop stop-color="#DDE9F6" offset="100%"></stop>
        </linearGradient>
        <linearGradient x1="27.9256898%" y1="68.3852103%" x2="68.060721%" y2="34.5743067%" id="linearGradient-2">
            <stop stop-color="#BFD2E8" offset="0%"></stop>
            <stop stop-color="#5E8EC8" offset="89.84%"></stop>
        </linearGradient>
        <linearGradient x1="27.578063%" y1="68.1709138%" x2="68.2399279%" y2="34.5349128%" id="linearGradient-3">
            <stop stop-color="#BFD2E8" offset="0%"></stop>
            <stop stop-color="#5E8EC8" offset="89.84%"></stop>
        </linearGradient>
        <linearGradient x1="49.9960159%" y1="-0.0974712644%" x2="49.9960159%" y2="99.9057471%" id="linearGradient-4">
            <stop stop-color="#7DA4D2" offset="0%"></stop>
            <stop stop-color="#81A7D3" offset="45.54%"></stop>
            <stop stop-color="#8BAFD8" offset="85.99%"></stop>
            <stop stop-color="#91B3DA" offset="100%"></stop>
        </linearGradient>
        <linearGradient x1="-0.0115569823%" y1="49.9056667%" x2="99.9807384%" y2="49.9056667%" id="linearGradient-5">
            <stop stop-color="#7DA4D2" offset="0%"></stop>
            <stop stop-color="#81A7D3" offset="45.54%"></stop>
            <stop stop-color="#8BAFD8" offset="85.99%"></stop>
            <stop stop-color="#91B3DA" offset="100%"></stop>
        </linearGradient>
        <linearGradient x1="-0.022953451%" y1="49.9681063%" x2="99.9691814%" y2="49.9681063%" id="linearGradient-6">
            <stop stop-color="#7DA4D2" offset="0%"></stop>
            <stop stop-color="#81A7D3" offset="45.54%"></stop>
            <stop stop-color="#8BAFD8" offset="85.99%"></stop>
            <stop stop-color="#91B3DA" offset="100%"></stop>
        </linearGradient>
        <linearGradient x1="-0.0345104334%" y1="50.03%" x2="99.9576244%" y2="50.03%" id="linearGradient-7">
            <stop stop-color="#7DA4D2" offset="0%"></stop>
            <stop stop-color="#81A7D3" offset="45.54%"></stop>
            <stop stop-color="#8BAFD8" offset="85.99%"></stop>
            <stop stop-color="#91B3DA" offset="100%"></stop>
        </linearGradient>
        <linearGradient x1="-0.0460674157%" y1="49.9256667%" x2="99.9460674%" y2="49.9256667%" id="linearGradient-8">
            <stop stop-color="#7DA4D2" offset="0%"></stop>
            <stop stop-color="#81A7D3" offset="45.54%"></stop>
            <stop stop-color="#8BAFD8" offset="85.99%"></stop>
            <stop stop-color="#91B3DA" offset="100%"></stop>
        </linearGradient>
        <linearGradient x1="-0.0576243981%" y1="49.9880399%" x2="99.9345104%" y2="49.9880399%" id="linearGradient-9">
            <stop stop-color="#7DA4D2" offset="0%"></stop>
            <stop stop-color="#81A7D3" offset="45.54%"></stop>
            <stop stop-color="#8BAFD8" offset="85.99%"></stop>
            <stop stop-color="#91B3DA" offset="100%"></stop>
        </linearGradient>
        <linearGradient x1="-0.0691813804%" y1="50.0503333%" x2="99.9229535%" y2="50.0503333%" id="linearGradient-10">
            <stop stop-color="#7DA4D2" offset="0%"></stop>
            <stop stop-color="#81A7D3" offset="45.54%"></stop>
            <stop stop-color="#8BAFD8" offset="85.99%"></stop>
            <stop stop-color="#91B3DA" offset="100%"></stop>
        </linearGradient>
        <linearGradient x1="22.4971891%" y1="4.07111717%" x2="85.4273551%" y2="96.6997275%" id="linearGradient-11">
            <stop stop-color="#BFD2E8" offset="0%"></stop>
            <stop stop-color="#BED1E8" offset="0.2834968%"></stop>
            <stop stop-color="#A0BCDE" offset="8.965523%"></stop>
            <stop stop-color="#88ACD6" offset="18.5%"></stop>
            <stop stop-color="#759ED0" offset="29.3%"></stop>
            <stop stop-color="#6895CB" offset="41.92%"></stop>
            <stop stop-color="#6090C9" offset="58.06%"></stop>
            <stop stop-color="#5E8EC8" offset="89.84%"></stop>
        </linearGradient>
        <linearGradient x1="24.9818152%" y1="5.56978852%" x2="82.0601359%" y2="94.1507553%" id="linearGradient-12">
            <stop stop-color="#BFD2E8" offset="0%"></stop>
            <stop stop-color="#BED1E8" offset="0.2834968%"></stop>
            <stop stop-color="#A0BCDE" offset="8.965523%"></stop>
            <stop stop-color="#88ACD6" offset="18.5%"></stop>
            <stop stop-color="#759ED0" offset="29.3%"></stop>
            <stop stop-color="#6895CB" offset="41.92%"></stop>
            <stop stop-color="#6090C9" offset="58.06%"></stop>
            <stop stop-color="#5E8EC8" offset="89.84%"></stop>
        </linearGradient>
    </defs>
    <g id="02-Spot-Illustrations-/-Search-Widgets" stroke="none" stroke-width="1" fill="none" fill-rule="evenodd">
        <g id="Group-Copy" fill-rule="nonzero">
            <path d="M239.260274,100.963902 L95.5890411,167.34439 L1.06849315,68.8390244 C-0.493150685,67.2 -0.246575342,65.2331707 1.56164384,64.4136585 L138.657534,1.06536585 C140.465753,0.245853659 143.178082,0.901463415 144.739726,2.45853659 L239.260274,100.963902 Z" id="Path" fill="url(#linearGradient-1)"></path>
            <path d="M102.575342,105.225366 L79.3972603,115.879024 C77.0958904,116.94439 76.5205479,120.058537 78.3287671,121.861463 L94.7671233,138.579512 C95.8356164,139.726829 98.0547945,140.628293 100.191781,139.480976 L126.328767,127.106341 L102.575342,105.225366 Z" id="Path" fill="url(#linearGradient-2)"></path>
            <path d="M131.260274,44.5814634 L107.589041,55.0712195 C105.287671,56.1365854 104.794521,59.0868293 106.60274,60.8897561 L122.219178,76.8702439 C123.287671,78.017561 125.506849,78.9190244 127.643836,77.7717073 L153.945205,65.3970732 L131.260274,44.5814634 Z" id="Path" fill="url(#linearGradient-3)"></path>
            <polygon id="Path" fill="#BFD2E8" points="219.616438 109.896585 116.30137 157.674146 108.657534 149.642927 211.972603 101.947317"></polygon>
            <path d="M200.219178,92.9326829 L116.383562,131.69561 C114.082192,132.760976 109.315068,134.318049 105.452055,130.712195 L88.9315068,113.338537 C86.9589041,111.207805 87.0410959,112.273171 89.260274,111.207805 L178.356164,70.2321951 C180.657534,69.1668293 184.109589,69.9863415 186.164384,72.1170732 L200.712329,87.2780488 C202.684932,89.3268293 202.438356,91.8673171 200.219178,92.9326829 Z" id="Path" fill="#F0EFF0"></path>
            <path d="M111.287671,56.4643902 L125.589041,70.8878049 C128.30137,74.2478049 132.493151,74.9853659 137.09589,73.182439 L167.013699,59.6604878 C169.479452,58.5131707 170.054795,56.1365854 168.328767,54.3336585 L153.452055,38.844878 C151.726027,37.0419512 148.356164,36.4682927 145.890411,37.6156098 L111.945205,53.1863415 C109.479452,54.3336585 109.561644,54.6614634 111.287671,56.4643902 Z" id="Path" fill="#F0EFF0"></path>
            <polygon id="Path" fill="url(#linearGradient-4)" points="88.6027397 47.5317073 38.8767123 70.4780488 51.0410959 83.1804878 100.767123 60.1521951"></polygon>
            <path d="M138.739726,0.983414634 L1.64383562,64.3317073 C-0.164383562,65.1512195 -0.410958904,67.2 1.15068493,68.7570732 L6.82191781,74.657561 L150.493151,8.27707317 L144.821918,2.37658537 C143.260274,0.819512195 140.547945,0.163902439 138.739726,0.983414634 Z" id="Path" fill="#F06B6C"></path>
            <path d="M113.506849,58.1034146 L148.109589,42.1229268 C148.356164,42.0409756 148.684932,42.1229268 148.849315,42.2868293 L154.027397,47.6956098 C154.191781,47.8595122 154.191781,48.1053659 153.945205,48.2692683 L119.342466,64.2497561 C119.09589,64.3317073 119.424658,64.0858537 118.60274,64.0858537 L113.424658,58.6770732 C113.260274,58.4312195 113.260274,58.1853659 113.506849,58.1034146 Z" id="Path" fill="#DDE9F6"></path>
            <path d="M120.90411,65.2331707 L155.013699,49.4985366 C155.260274,49.4165854 155.589041,49.4985366 155.753425,49.662439 L160.931507,55.0712195 C161.09589,55.235122 161.09589,55.4809756 160.931507,55.644878 L126.328767,71.6253659 C126.082192,71.7073171 125.178082,70.3960976 124.931507,69.6585366 L120.986301,65.8068293 C120.657534,65.5609756 120.657534,65.315122 120.90411,65.2331707 Z" id="Path" fill="#DDE9F6"></path>
            <g id="Group" transform="translate(52.602740, 61.463415)">
                <polygon id="Path" fill="url(#linearGradient-5)" points="51.6164384 2.37658537 2.05479452 25.3229268 0.410958904 23.6019512 49.9726027 0.737560976"></polygon>
                <polygon id="Path" fill="url(#linearGradient-6)" points="54.8219178 5.73658537 5.26027397 28.6829268 3.61643836 26.9619512 53.1780822 4.01560976"></polygon>
                <polygon id="Path" fill="url(#linearGradient-7)" points="58.0273973 9.09658537 8.46575342 31.9609756 6.82191781 30.24 56.3835616 7.37560976"></polygon>
                <polygon id="Path" fill="url(#linearGradient-8)" points="61.2328767 12.4565854 11.6712329 35.3209756 10.0273973 33.6 59.5890411 10.7356098"></polygon>
                <polygon id="Path" fill="url(#linearGradient-9)" points="64.4383562 15.7346341 14.8767123 38.6809756 13.2328767 36.96 62.7945205 14.0136585"></polygon>
                <polygon id="Path" fill="url(#linearGradient-10)" points="67.6438356 19.0946341 18.0821918 41.9590244 16.4383562 40.2380488 66 17.3736585"></polygon>
            </g>
            <g id="Group" transform="translate(13.972603, 57.365854)" fill="#DDE9F6">
                <path d="M3.61643836,5.98243902 C4.2739726,6.63804878 4.19178082,7.45756098 3.45205479,7.78536585 C2.71232877,8.11317073 1.64383562,7.86731707 1.06849315,7.21170732 C0.410958904,6.55609756 0.493150685,5.73658537 1.23287671,5.40878049 C1.89041096,5.08097561 2.95890411,5.32682927 3.61643836,5.98243902 Z" id="Path"></path>
                <path d="M9.20547945,3.36 C9.8630137,4.01560976 9.78082192,4.83512195 9.04109589,5.16292683 C8.30136986,5.49073171 7.23287671,5.24487805 6.65753425,4.58926829 C6,3.93365854 6.08219178,3.11414634 6.82191781,2.78634146 C7.56164384,2.45853659 8.63013699,2.70439024 9.20547945,3.36 Z" id="Path"></path>
                <path d="M14.8767123,0.737560976 C15.5342466,1.39317073 15.4520548,2.21268293 14.7123288,2.5404878 C13.9726027,2.86829268 12.9041096,2.62243902 12.3287671,1.96682927 C11.6712329,1.31121951 11.7534247,0.491707317 12.4931507,0.163902439 C13.1506849,-0.163902439 14.3013699,0.0819512195 14.8767123,0.737560976 Z" id="Path"></path>
            </g>
            <path d="M146.958904,101.865366 L187.315068,83.1804878 C187.561644,83.0985366 187.972603,83.1804878 188.136986,83.4263415 L194.219178,89.7365854 C194.465753,89.982439 194.383562,90.2282927 194.136986,90.3921951 L153.863014,108.995122 C153.616438,109.077073 153.205479,108.995122 153.041096,108.749268 L146.958904,102.439024 C146.712329,102.275122 146.712329,102.029268 146.958904,101.865366 Z" id="Path" fill="#F48F90"></path>
            <path d="M138.328767,92.7687805 L178.684932,74.0839024 C178.931507,74.0019512 179.342466,74.0839024 179.506849,74.3297561 L185.589041,80.64 C185.835616,80.8858537 185.753425,81.1317073 185.506849,81.2956098 L145.150685,99.9804878 C144.90411,100.062439 144.493151,99.9804878 144.328767,99.7346341 L138.246575,93.4243902 C138,93.1785366 138.082192,92.9326829 138.328767,92.7687805 Z" id="Path" fill="#DDE9F6"></path>
            <path d="M139.561644,101.947317 L133.479452,95.6370732 C133.232877,95.3912195 132.821918,95.3092683 132.493151,95.4731707 L94.7671233,112.92878 L102.493151,119.730732 L139.39726,102.684878 C139.643836,102.520976 139.726027,102.193171 139.561644,101.947317 Z" id="Path" fill="#DDE9F6"></path>
            <path d="M85.1506849,101.127805 L105.945205,120.058537 C105.945205,120.140488 100.60274,125.877073 105.780822,131.203902 L82.4383562,110.142439 C82.5205479,110.060488 79.3972603,104.733659 85.1506849,101.127805" id="Path" fill="url(#linearGradient-11)"></path>
            <path d="M109.972603,44.6634146 L127.39726,61.6273171 C127.39726,61.6273171 123.205479,68.2653659 126.410959,71.7892683 L125.09589,70.56 L107.835616,53.3502439 C107.835616,53.3502439 104.383562,49.8263415 109.150685,45.4009756" id="Path" fill="url(#linearGradient-12)"></path>
        </g>
    </g>
</svg>